<mxfile host="app.diagrams.net" modified="2023-10-07T00:33:44.130Z" agent="Mozilla/5.0 (Windows NT 10.0; Win64; x64) AppleWebKit/537.36 (KHTML, like Gecko) Chrome/117.0.0.0 Safari/537.36" version="22.0.4" etag="WamJup-MJdoKHW5Nn5vj" type="github">
  <diagram name="Page-1" id="vcVH3aOrY-RBKPx8rQFh">
    <mxGraphModel>
      <root>
        <mxCell id="0" />
        <mxCell id="1" parent="0" />
      </root>
    </mxGraphModel>
  </diagram>
</mxfile>
